# xmcd
#
# Track frame offsets: 
#        150
#        20095
#        30710
#        44062
#        58512
#        69132
#        82397
#        97383
#        108027
#        125351
#        144759
#        161857
#        183654
#        197919
#
# Disc length: 2872 seconds
#
# Revision: 0
# Processed by: cddbd v1.5.2PL0 Copyright (c) Steve Scherf et al.
# Submitted via: ExactAudioCopy v1.1
#
DISCID=cd0b360e
DTITLE=Various Artist - Die schönsten Jägerlieder
DYEAR=1900
DGENRE=
TTITLE0=Orig. Südtiloler Spitzbuam - Die Gamslan schwarz und braun
TTITLE1=Die Edlseer - Im Wald drausst is schön
TTITLE2=Ensemble Osttirol - Der alte Jäger
TTITLE3=Orig. Alpenland Quintett - Grüne Tannen
TTITLE4=Hippacher Trio - Die Berge die sind mein Zuhaus'
TTITLE5=Orig. Tiroler Echo - Jagerleben
TTITLE6=Die Edlseer - Das schönste Bleamal auf der Alm
TTITLE7=Erich Edlinger - Steig' ich den Berg hinan
TTITLE8=D'grünauer Buam - Försterliesl
TTITLE9=Heimatland Trio - Ich lieb' die Berge meiner Heimat
TTITLE10=Die 4 Holterbuam - Hirscherljog'n
TTITLE11=Tiroler Jagergsang - Der Wildschütz Jennewein
TTITLE12=Orig. Südtiroler Spitzbuam - Wo der Wildbach rauscht
TTITLE13=Mitterling Buam - Försters Abschied
EXTD=
EXTT0=
EXTT1=
EXTT2=
EXTT3=
EXTT4=
EXTT5=
EXTT6=
EXTT7=
EXTT8=
EXTT9=
EXTT10=
EXTT11=
EXTT12=
EXTT13=
PLAYORDER=
